<?xml version="1.0" standalone="yes"?>
<svg xmlns="http://www.w3.org/2000/svg" width="455" height="365">
<path style="fill:#000000; stroke:none;" d="M0 0L0 365L455 365L455 0L0 0z"/>
<path style="fill:#aa6666; stroke:none;" d="M217.667 110.333C217.222 110.778 218.278 110.722 218.333 110.667C218.778 110.222 217.722 110.278 217.667 110.333z"/>
<path style="fill:#d06c78; stroke:none;" d="M215 111C216.792 112.611 217.92 113.852 219 116C219.779 114.231 219.912 112.964 220 111L215 111z"/>
<path style="fill:#de6e64; stroke:none;" d="M214 112L212 116C214.175 115.415 215.244 114.427 217 113C215.752 112.315 215.452 112.251 214 112z"/>
<path style="fill:#e55354; stroke:none;" d="M215 115C216.645 115.177 216.647 115.141 218 116C218.574 114.191 218.465 113.931 218 112C216.076 113.001 215.902 113.077 215 115z"/>
<path style="fill:#ffffff; stroke:none;" d="M220 113L221 114L220 113z"/>
<path style="fill:#d4140f; stroke:none;" d="M215 117C218.55 117 217 124.957 217 128C218.769 123.783 218 118.541 218 114C215.876 114.899 215.899 114.876 215 117z"/>
<path style="fill:#7f7f7f; stroke:none;" d="M211 115L212 116L211 115z"/>
<path style="fill:#ff0000; stroke:none;" d="M233 115L234 116L233 115z"/>
<path style="fill:#f18061; stroke:none;" d="M203 127C207.197 123.993 210.923 120.144 214 116C208.585 117.52 204.52 121.585 203 127z"/>
<path style="fill:#f11507; stroke:none;" d="M214 116C214.014 121.227 214.248 125.882 213 131C218.424 128.009 217 121.471 217 116L214 116z"/>
<path style="fill:#f1603e; stroke:none;" d="M218 116C218 123.972 216.52 127.474 212 134C219.822 131.942 220.861 122.818 218 116z"/>
<path style="fill:#d75e51; stroke:none;" d="M219 116L219 129C220.591 125.209 220.591 119.791 219 116z"/>
<path style="fill:#7f7f7f; stroke:none;" d="M232 116L233 117L232 116z"/>
<path style="fill:#d46e66; stroke:none;" d="M231 119L235 118C236.183 122.97 236 127.919 236 133C237.516 129.386 237.826 122.975 236.682 119.152C235.589 115.499 232.615 116.738 231 119z"/>
<path style="fill:#ff320d; stroke:none;" d="M213 117C211.195 119.723 210.349 121.754 210 125C212.94 123.116 213.801 120.404 213 117z"/>
<path style="fill:#ff0000; stroke:none;" d="M230 118L231 119L230 118z"/>
<path style="fill:#c22f1d; stroke:none;" d="M233 118L233 120L235 120L235 118L233 118z"/>
<path style="fill:#f63000; stroke:none;" d="M213 119C212.579 121.843 212.061 123.012 210 125C211.306 128.532 211.41 130.459 210 134C215.253 131.035 215.432 124.07 213 119z"/>
<path style="fill:#eb7e60; stroke:none;" d="M221 129C226.243 127.532 229.113 123.534 233 120C227.958 118.988 223.442 125.109 221 129z"/>
<path style="fill:#f05658; stroke:none;" d="M235 119L235 128C236.256 125.006 236.256 121.994 235 119z"/>
<path style="fill:#f4572a; stroke:none;" d="M209 120L209 122C210.635 121.455 210.455 121.635 211 120L209 120z"/>
<path style="fill:#fb3600; stroke:none;" d="M231 120C229.934 122.052 227.975 123.917 227.217 126.091C226.085 129.337 227.249 134.443 227 138C230.517 137.259 232.049 136.004 234 133C232.339 133.613 231.517 134.043 230 135C229.956 131.575 229.788 128.335 229 125C231.306 123.532 232.051 122.567 233 120L231 120z"/>
<path style="fill:#d70900; stroke:none;" d="M233 120L233 133C234.591 129.209 234.591 123.791 233 120z"/>
<path style="fill:#e82c2b; stroke:none;" d="M234 120L234 133C235.591 129.209 235.591 123.791 234 120z"/>
<path style="fill:#c5787f; stroke:none;" d="M249 122C250.341 123.274 251.403 124.041 253 125L253 121L249 122z"/>
<path style="fill:#f94c08; stroke:none;" d="M203 141C212.488 136.558 211.084 130.514 210 122C202.4 125.799 205.901 134.186 203 141z"/>
<path style="fill:#fb2701; stroke:none;" d="M232 122L229 125L230 135C233.46 131.612 233.861 126.435 232 122z"/>
<path style="fill:#e36b5e; stroke:none;" d="M244 128C247.334 127.068 248.913 125.757 251 123C247.43 123.597 246.007 125.029 244 128z"/>
<path style="fill:#7f7f7f; stroke:none;" d="M246 124L247 125L246 124z"/>
<path style="fill:#ee1909; stroke:none;" d="M250 124C248.651 125.768 247.878 126.982 247 129C250.503 129 249 136.039 249 139C250.605 135.174 251.398 127.897 250 124z"/>
<path style="fill:#f7544f; stroke:none;" d="M251 124L251 138C252.667 134.028 252.667 127.972 251 124z"/>
<path style="fill:#e6b162; stroke:none;" d="M202 125C197.375 129.625 191.79 134.016 189 140C193.133 137.983 203.336 130.072 202 125z"/>
<path style="fill:#d96969; stroke:none;" d="M252 125L252 138C253.591 134.209 253.591 128.791 252 125z"/>
<path style="fill:#fb6003; stroke:none;" d="M204 126C202.133 128.086 201.434 129.246 201 132C202.797 132 202.521 131.986 204 131C203.677 133.032 203.66 133.982 204 136C202.686 136.768 202.768 136.686 202 138L203 139L205 139C205.823 134.773 205.444 130.054 204 126z"/>
<path style="fill:#bf757f; stroke:none;" d="M265 127C266.506 127.683 267.315 127.826 269 128C267.276 126.945 267.079 126.964 265 127z"/>
<path style="fill:#e95c15; stroke:none;" d="M225 127C223.652 128.768 222.878 129.983 222 132C224.223 130.619 225.245 129.644 225 127z"/>
<path style="fill:#ff5a00; stroke:none;" d="M226 128C224.29 130.644 223.673 131.897 224 135C222.82 136.07 221.686 139.735 224.835 139.079C229.135 138.183 227.555 130.315 226 128z"/>
<path style="fill:#e05d46; stroke:none;" d="M235 128C234.678 130.584 234.027 132.602 233 135L234 136C235.993 133.369 236.275 131.07 235 128z"/>
<path style="fill:#e68960; stroke:none;" d="M241 132C243.249 130.846 243.846 130.249 245 128C242.751 129.154 242.154 129.751 241 132z"/>
<path style="fill:#e74c16; stroke:none;" d="M245 128L242 134C244.611 132.36 245.709 130.803 247 128L245 128z"/>
<path style="fill:#fa2601; stroke:none;" d="M248 128C246.036 130.281 245.418 132.038 245 135C246.267 136.543 246.489 137.048 247 139L249 139C249 135.3 249.44 131.432 248 128z"/>
<path style="fill:#e8211c; stroke:none;" d="M250 128L250 139C251.431 135.59 251.431 131.41 250 128z"/>
<path style="fill:#ef6a47; stroke:none;" d="M264 128C262.166 130.985 260.259 133.725 259 137L268 130C266.623 129.089 265.56 128.596 264 128z"/>
<path style="fill:#e6706f; stroke:none;" d="M265 128C266.248 128.685 266.548 128.749 268 129L268 134C268.874 131.948 268.953 130.253 269 128L265 128z"/>
<path style="fill:#e07155; stroke:none;" d="M269 128C269 135.381 270.059 141.805 264 147C266.462 147.697 267.665 147.11 270 146C269.627 140.205 271.272 133.415 269 128z"/>
<path style="fill:#000000; stroke:none;" d="M219 129L220 130L219 129z"/>
<path style="fill:#f69049; stroke:none;" d="M213 137C210.709 137.311 210.68 137.366 209 139C215.659 139.375 219.576 134.138 223 129C218.331 130.13 215.372 132.88 213 137z"/>
<path style="fill:#ff8600; stroke:none;" d="M199 130C196.869 135.039 194.537 141.626 196 147C200.569 143.194 198.749 138.291 202 134L201 130L199 130z"/>
<path style="fill:#e61803; stroke:none;" d="M266 130C264.565 134.853 265 139.964 265 145L267 145C267 140.183 267.876 134.471 266 130z"/>
<path style="fill:#f84435; stroke:none;" d="M267 130L267 145C268.74 140.852 268.74 134.148 267 130z"/>
<path style="fill:#fc7a08; stroke:none;" d="M203 131C200.022 135.281 200.001 138.907 200 144C201.894 143.535 203.277 142.934 205 142C203.654 139.697 202.967 138.467 204 136C203.815 134.17 203.634 132.697 203 131z"/>
<path style="fill:#f97207; stroke:none;" d="M221 131C217.462 136.658 218.189 143.711 216 150C219.296 148.419 222.775 145.69 223.271 141.715C223.617 138.941 222.531 137.506 224 135C223.045 133.233 222.434 132.393 221 131z"/>
<path style="fill:#e77f4c; stroke:none;" d="M240 131C238.138 132.945 236.532 134.794 235 137C238.222 136.083 239.927 134.621 242 132L240 131z"/>
<path style="fill:#7f7f7f; stroke:none;" d="M261 131L262 132L261 131z"/>
<path style="fill:#000000; stroke:none;" d="M216 132L217 133L216 132z"/>
<path style="fill:#ff0000; stroke:none;" d="M260 132L261 133L260 132z"/>
<path style="fill:#fd2b08; stroke:none;" d="M264 132C261.908 136.282 262.839 140.474 264 145C265.591 141.209 265.591 135.791 264 132z"/>
<path style="fill:#d97373; stroke:none;" d="M281 133C282.684 134.602 283.859 135.975 285 138C286.401 134.312 284.806 132.418 281 133z"/>
<path style="fill:#eda02c; stroke:none;" d="M195 136C196.457 134.897 196.897 134.457 198 133C195.876 133.899 195.899 133.876 195 136z"/>
<path style="fill:#000000; stroke:none;" d="M215 133L216 134L215 133z"/>
<path style="fill:#ff0000; stroke:none;" d="M236 133L237 134L236 133z"/>
<path style="fill:#f5650f; stroke:none;" d="M240 133L241 137C239.203 137 239.479 137.014 238 138C240.058 141.897 238.937 144.888 238 149C240.833 147.631 243.232 146.617 245 144C241.175 141.52 242 137.192 242 133L240 133z"/>
<path style="fill:#ff4905; stroke:none;" d="M242 144C243.676 143.441 247.256 142.232 248 140C248.715 137.856 246.07 135.07 245 134L246 133C241.017 134.654 242 139.475 242 144z"/>
<path style="fill:#dc785c; stroke:none;" d="M258 136C259.457 134.897 259.897 134.457 261 133C258.876 133.899 258.899 133.876 258 136z"/>
<path style="fill:#fa7137; stroke:none;" d="M206 140C209.205 139.368 212.792 137.044 214 134C210.236 135.057 208.287 136.855 206 140z"/>
<path style="fill:#000000; stroke:none;" d="M236 134L237 135L236 134z"/>
<path style="fill:#f5604d; stroke:none;" d="M268 134L268 143C269.256 140.006 269.256 136.994 268 134z"/>
<path style="fill:#f8694a; stroke:none;" d="M278 141L284 135C280.042 134.171 278.885 137.65 278 141z"/>
<path style="fill:#f76849; stroke:none;" d="M232 135L230 139L235 138L234 135L232 135z"/>
<path style="fill:#000000; stroke:none;" d="M235 135L236 136L235 135z"/>
<path style="fill:#fa7c03; stroke:none;" d="M239 135C233.474 141.705 235.718 145.163 235 153C239.429 150.162 240.972 142.311 238 138C239.388 137.309 239.861 137.015 241 136L239 135z"/>
<path style="fill:#fd4803; stroke:none;" d="M261 135C259.903 139.224 260.024 143.637 260 148C265.119 145.135 264.152 139.252 261 135z"/>
<path style="fill:#e02d19; stroke:none;" d="M283 135C282.461 139.905 283 145.037 283 150C284.74 145.852 284.74 139.148 283 135z"/>
<path style="fill:#f2b21c; stroke:none;" d="M193 136C190.832 139.034 188.408 141.516 187 145L191 145L195 136L193 136z"/>
<path style="fill:#fda305; stroke:none;" d="M195 136C191.43 142.25 188.465 148.671 189 156L198 149C195.272 143.954 196.646 141.344 197 136L195 136z"/>
<path style="fill:#fd8400; stroke:none;" d="M216 136C215.641 139.813 216.018 143.307 217 147C219.006 143.912 218.564 139.686 219 136L216 136z"/>
<path style="fill:#ff0000; stroke:none;" d="M234 136L235 137L234 136z"/>
<path style="fill:#eb944c; stroke:none;" d="M257 136L256 140C257.608 138.55 258.064 137.949 259 136L257 136z"/>
<path style="fill:#ff3702; stroke:none;" d="M281 136L278 142C279.917 144.329 279.886 147.033 280 150C283.087 145.652 283.163 140.819 281 136z"/>
<path style="fill:#f7554d; stroke:none;" d="M284 136L284 150C285.667 146.028 285.667 139.972 284 136z"/>
<path style="fill:#f19043; stroke:none;" d="M223 146C228.924 144.147 234.074 142.948 237 137C231.07 139.025 226.21 140.16 223 146z"/>
<path style="fill:#ff6208; stroke:none;" d="M259 137C257.101 141.176 257.988 145.465 258 150L260 150C260.012 145.68 261.33 140.744 259 137z"/>
<path style="fill:#f38d4b; stroke:none;" d="M278 137C275.34 139.508 272.726 141.763 271 145C275.071 144.009 278.758 141.607 278 137z"/>
<path style="fill:#db1d00; stroke:none;" d="M282 137L282 142C282.83 139.97 282.83 139.03 282 137z"/>
<path style="fill:#ff9901; stroke:none;" d="M213 139C213.768 140.314 213.686 140.232 215 141C213.346 145.399 211.645 148.277 213 153C217.613 148.364 216.162 143.891 216 138C214.203 138 214.479 138.014 213 139z"/>
<path style="fill:#eb570d; stroke:none;" d="M222 145C225.019 143.373 227.308 141.098 230 139C225.825 138.024 223.528 141.483 222 145z"/>
<path style="fill:#ff0000; stroke:none;" d="M232 138L233 139L232 138z"/>
<path style="fill:#ef7048; stroke:none;" d="M251 138C249.03 140.74 246.588 143.019 245 146C249.297 144.819 251.402 142.064 253 138L251 138z"/>
<path style="fill:#d18355; stroke:none;" d="M255 138L253 139C254.482 139.791 255.796 139.87 255 138z"/>
<path style="fill:#d26c60; stroke:none;" d="M285 138L285 151C286.591 147.209 286.591 141.791 285 138z"/>
<path style="fill:#f4cf6d; stroke:none;" d="M188 139C184.564 142.438 181.068 145.566 179 150C182.845 147.808 188.992 143.926 188 139z"/>
<path style="fill:#000000; stroke:none;" d="M209 139L210 140L209 139z"/>
<path style="fill:#f9b840; stroke:none;" d="M190 156C197.578 155.007 209.635 145.904 213 139C205.467 142.491 195.031 149.289 190 156z"/>
<path style="fill:#ff0000; stroke:none;" d="M231 139L232 140L231 139z"/>
<path style="fill:#de300d; stroke:none;" d="M243 143C246.361 144.097 248.374 142.064 251 140C247.843 139.351 245.67 141.321 243 143z"/>
<path style="fill:#ffff00; stroke:none;" d="M275 139L276 140L275 139z"/>
<path style="fill:#ef9f40; stroke:none;" d="M198 149C202.756 146.776 206.848 144.246 210 140C204.404 140.393 200.57 144.155 198 149z"/>
<path style="fill:#f79b4d; stroke:none;" d="M248 146C251.462 144.536 253.976 143.208 256 140C251.997 140.634 249.88 142.437 248 146z"/>
<path style="fill:#fd760a; stroke:none;" d="M256 140L254 143C255.84 146.33 255.583 149.327 256 153C259.179 149.503 258.814 143.713 256 140z"/>
<path style="fill:#ffa800; stroke:none;" d="M210 155L213 153C212.018 148.343 213.851 145.411 215 141C208.342 142.156 210 149.654 210 155z"/>
<path style="fill:#fb9703; stroke:none;" d="M233 141C232.322 144.278 231.273 147.634 234 150C233.782 151.687 233.776 152.316 234 154C236.508 150.16 235.383 144.746 233 141z"/>
<path style="fill:#f95400; stroke:none;" d="M277 141C276.269 145.19 277.735 148.82 278 153C280.345 149.567 279.725 145.994 280 142L277 141z"/>
<path style="fill:#ffff00; stroke:none;" d="M206 142L207 143L206 142z"/>
<path style="fill:#000000; stroke:none;" d="M228 142L229 143L228 142z"/>
<path style="fill:#ff8905; stroke:none;" d="M253 143L250 148C252.998 149.801 253.14 151.613 253 155L256 155C255.769 150.518 256.978 145.868 253 143z"/>
<path style="fill:#ff6700; stroke:none;" d="M275 143C274.474 146.951 274.901 151.159 276 155C278.782 150.922 277.747 146.863 275 143z"/>
<path style="fill:#fecd04; stroke:none;" d="M186 144C183.033 148.374 182.744 151.914 182 157C181.014 155.522 181 155.797 181 154C179.145 156.76 179.307 158.785 180 162L183 162C184.603 159.166 186.215 157.689 189 156C188.028 153.351 186.944 151.588 188 149L186 144z"/>
<path style="fill:#ffba10; stroke:none;" d="M188 144C187 146.053 186.494 146.414 188 148C186.598 150.076 186.518 150.541 187 153L189 153L190 152C189.782 148.899 189.836 146.527 188 144z"/>
<path style="fill:#ee8617; stroke:none;" d="M197 148C199.118 146.782 199.845 146.133 201 144C198.751 145.154 198.154 145.751 197 148z"/>
<path style="fill:#f5ca09; stroke:none;" d="M208 144L202 151C203.79 153.603 205.101 155.966 206 159C210.316 154.572 210 149.852 210 144L208 144z"/>
<path style="fill:#f6af42; stroke:none;" d="M216 153C222.126 152.1 225.402 147.201 231 145C224.707 142.594 218.571 147.509 216 153z"/>
<path style="fill:#f8aa00; stroke:none;" d="M228 149L231 148C230.751 151.129 230.922 152.643 233 155L234 150C232.431 147.776 232.516 146.706 233 144C230.313 145.324 229.324 146.313 228 149z"/>
<path style="fill:#fcb53a; stroke:none;" d="M251 144L243 150C246.667 150.779 251.088 147.898 251 144z"/>
<path style="fill:#fed33a; stroke:none;" d="M217 152L218 158C221.673 153.646 226.567 150.18 229 145C224.563 147.149 222.072 151.236 217 152z"/>
<path style="fill:#d93b18; stroke:none;" d="M262 148L267 146C264.491 145.434 263.78 146.152 262 148z"/>
<path style="fill:#eea846; stroke:none;" d="M262 153C264.403 152.031 266.437 151.307 269 151L273 145C268.411 146.101 264.297 148.847 262 153z"/>
<path style="fill:#f9b105; stroke:none;" d="M273 145C269.501 149.864 269.253 156.097 269 162C271.934 159.921 271.479 156.998 273 154L273 145z"/>
<path style="fill:#ffdd41; stroke:none;" d="M182 149C183.457 147.897 183.897 147.457 185 146C182.876 146.899 182.899 146.876 182 149z"/>
<path style="fill:#f2953d; stroke:none;" d="M239 152L248 147C243.607 145.359 240.847 148.169 239 152z"/>
<path style="fill:#fc9103; stroke:none;" d="M274 146C272.393 149.04 272.107 150.677 273 154C271.158 155.852 271.447 158.405 271 161C275.988 159.931 276.981 149.238 274 146z"/>
<path style="fill:#e20d07; stroke:none;" d="M282 146L282 150C282.71 148.24 282.71 147.759 282 146z"/>
<path style="fill:#f7d83e; stroke:none;" d="M203 147C200.098 150.338 196.762 152.452 196 157C199.163 153.687 202.936 151.136 205 147L203 147z"/>
<path style="fill:#e06e18; stroke:none;" d="M238 152C239.627 150.412 240.774 148.922 242 147C239.453 148.373 238.812 149.218 238 152z"/>
<path style="fill:#e83d12; stroke:none;" d="M281 147L279 153L283 152C282.52 150.04 282.062 148.693 281 147z"/>
<path style="fill:#f9d703; stroke:none;" d="M227 148C223.225 151.614 219.645 154.298 220.063 159.985C220.178 161.548 220.456 163.673 222.213 164.248C224.354 164.949 225.888 162.561 226.619 160.941C228.24 157.349 228.199 151.67 227 148z"/>
<path style="fill:#fdbb03; stroke:none;" d="M227 160C232.855 158.102 230.844 152.967 231 148C226.153 150.664 227.573 155.149 227 160z"/>
<path style="fill:#f2c81c; stroke:none;" d="M248 148L245 152C247.475 151.317 248.669 150.607 248 148z"/>
<path style="fill:#fac007; stroke:none;" d="M249 148C247.033 153.398 248.005 159.757 244 164C247.012 164.423 248.652 162.879 251 161C249.859 158.103 249.695 155.034 249 152C250.715 150.408 250.379 149.85 249 148z"/>
<path style="fill:#fca100; stroke:none;" d="M250 148C251.059 151.339 251.339 155.711 254 158L253 148L250 148z"/>
<path style="fill:#db6410; stroke:none;" d="M256 155L264 149C259.793 147.599 257.556 151.55 256 155z"/>
<path style="fill:#f8883d; stroke:none;" d="M259 153C260.479 153.986 260.203 154 262 154C263.33 151.403 264.436 150.409 267 149C263.4 148.044 261.211 150.295 259 153z"/>
<path style="fill:#f7e571; stroke:none;" d="M178 149L174 154C176.885 153.132 178.673 152.179 178 149z"/>
<path style="fill:#f3e838; stroke:none;" d="M180 149C175.717 154.62 175 157.999 175 165C176.065 162.462 175.615 159.726 176.589 157.17C177.712 154.22 180.396 151.734 182 149L180 149z"/>
<path style="fill:#f1aa47; stroke:none;" d="M237 152C237 153.797 237.014 153.521 238 155C240.612 153.61 242.695 151.85 245 150C242.215 149.263 239.724 151.126 237 152z"/>
<path style="fill:#f8df09; stroke:none;" d="M181 150C177.938 154.707 177.016 158.429 177 164L180 164C179.758 160.568 179.512 157.422 180 154C180.986 155.479 181 155.203 181 157C182.805 154.31 182.91 152.623 181 150z"/>
<path style="fill:#f6ab11; stroke:none;" d="M215 150C212.627 152.825 209.677 154.653 208 158C211.738 156.011 214.858 153.681 217 150L215 150z"/>
<path style="fill:#eed145; stroke:none;" d="M262 156C264.948 154.503 266.313 152.846 268 150C264.669 151.331 263.064 152.543 262 156z"/>
<path style="fill:#fac402; stroke:none;" d="M269 150C265.213 154.01 263.637 161.971 270 164C269.236 159.369 270.784 154.291 269 150z"/>
<path style="fill:#e67964; stroke:none;" d="M283 150L279 156L280 157C282.652 154.911 283.914 153.199 285 150L283 150z"/>
<path style="fill:#fbd709; stroke:none;" d="M201 151C198.655 155.707 198.434 159.848 198 165C206.661 164.342 208.102 155.499 201 151z"/>
<path style="fill:#f6e12e; stroke:none;" d="M241 162L245 151C240.027 153.531 240.803 156.998 241 162z"/>
<path style="fill:#fad600; stroke:none;" d="M244 152L244 164C247.947 161.154 247 156.486 247 152L244 152z"/>
<path style="fill:#f8b006; stroke:none;" d="M249 152C249.402 154.806 249.402 157.194 249 160L253 159C252.428 156.623 252.11 154.442 252 152L249 152z"/>
<path style="fill:#7f7f7f; stroke:none;" d="M284 152L285 153L284 152z"/>
<path style="fill:#deb34c; stroke:none;" d="M212 154L213 158L218 154C215.779 153.61 214.246 153.665 212 154z"/>
<path style="fill:#e9961e; stroke:none;" d="M231 159C233.363 157.194 235.222 155.381 237 153C233.532 154.215 232.048 155.458 231 159z"/>
<path style="fill:#f3b152; stroke:none;" d="M253 158C254.139 159.015 254.612 159.309 256 160C257.904 157.651 258.979 156.347 262 156C259.065 152.026 255.942 155.553 253 158z"/>
<path style="fill:#ea6d10; stroke:none;" d="M274 158C277.087 156.788 278.918 155.578 281 153C277.376 153.527 275.647 154.725 274 158z"/>
<path style="fill:#e4db74; stroke:none;" d="M173 154C172.998 157.425 171.333 164.664 174.473 166.972C176.462 168.434 179.686 167.992 182 168C180.235 167.229 177.902 167.087 176.313 165.975C172.667 163.424 174.148 157.577 175 154L173 154z"/>
<path style="fill:#f7e12c; stroke:none;" d="M197 154L197 166L202 166C200.494 165.317 199.685 165.174 198 165C198.631 161.253 198.748 157.603 200 154L197 154z"/>
<path style="fill:#ebbd67; stroke:none;" d="M233 160C235.447 158.164 236.701 156.763 238 154C235.082 155.517 234.078 156.893 233 160z"/>
<path style="fill:#e0db79; stroke:none;" d="M239 154C239 160.038 237.617 173.101 247.679 167.417C248.707 166.837 249.245 165.856 250 165C248.436 165.361 246.46 166.299 244.845 166.227C238.828 165.958 240.587 157.782 239 154z"/>
<path style="fill:#f9de13; stroke:none;" d="M265 154C263.316 157.702 263.92 160.992 264 165C265.797 165 265.522 164.986 267 164C265.971 160.679 266.308 157.137 265 154z"/>
<path style="fill:#f5e062; stroke:none;" d="M174 155C174 157.927 173.089 162.949 175.028 165.397C179.325 170.822 186.27 164.672 187 160C184.239 161.569 179 167.855 176.028 163.663C174.356 161.305 175.111 157.647 174 155z"/>
<path style="fill:#f6d91d; stroke:none;" d="M176 155L176 166C182.239 165.529 186.126 161.314 189 156C184.353 157.894 181.698 162.129 177 164C177.026 160.878 177.276 158.039 178 155L176 155z"/>
<path style="fill:#f4cd51; stroke:none;" d="M192 155C189.644 156.497 188.408 157.601 187 160C189.919 159.161 192.076 158.24 192 155z"/>
<path style="fill:#ecd561; stroke:none;" d="M195 155L195 161C195.951 158.715 195.951 157.285 195 155z"/>
<path style="fill:#e1d77d; stroke:none;" d="M217 155L217 162C218.059 159.466 218.059 157.534 217 155z"/>
<path style="fill:#f8e531; stroke:none;" d="M219 155L219 166L225 166C220.206 162.791 221.016 159.791 219 155z"/>
<path style="fill:#f0de1a; stroke:none;" d="M243 155C242.01 158.35 242.002 161.514 242 165L244 165C244.063 161.474 244.776 158.109 243 155z"/>
<path style="fill:#e88619; stroke:none;" d="M254 155L254 157L256 157L256 155L254 155z"/>
<path style="fill:#f0d358; stroke:none;" d="M211 156C207.97 160.085 203.673 162.612 201 167C206.933 166.085 211.392 161.73 213 156L211 156z"/>
<path style="fill:#f8e146; stroke:none;" d="M240 156C240.004 161.472 239.636 165.504 246 166C244.494 165.317 243.685 165.174 242 165C241.608 161.916 241.271 158.829 240 156z"/>
<path style="fill:#dfcf60; stroke:none;" d="M260 156C260 159.884 258.419 166.018 263 167L260 156z"/>
<path style="fill:#fce643; stroke:none;" d="M261 156C261.002 159.486 261.01 162.65 262 166C263.327 162.837 263 159.414 263 156L261 156z"/>
<path style="fill:#f0a861; stroke:none;" d="M278 156L275 160C277.969 159.486 278.634 158.711 280 156L278 156z"/>
<path style="fill:#fbf14a; stroke:none;" d="M196 157C195.718 160.382 195.803 163.617 196 167L201 167C199.494 166.317 198.685 166.174 197 166C196.998 162.874 197.213 159.89 196 157z"/>
<path style="fill:#efc12d; stroke:none;" d="M207 157L206 161C208.357 159.896 209.376 159.044 211 157L207 157z"/>
<path style="fill:#f8cc4f; stroke:none;" d="M232 157L230 161C232.562 160.264 232.983 159.481 234 157L232 157z"/>
<path style="fill:#ffff00; stroke:none;" d="M257 157L258 158L257 157z"/>
<path style="fill:#ef9736; stroke:none;" d="M274 160C275.924 158.999 276.098 158.923 277 157C274.876 157.899 274.899 157.876 274 160z"/>
<path style="fill:#feef58; stroke:none;" d="M218 158L217 166L219 166C218.993 163.165 219.098 160.613 218 158z"/>
<path style="fill:#efd22c; stroke:none;" d="M263 158L263 166C265.528 165.948 267.582 165.722 270 165C267.761 164.189 266.353 164.471 264 165C263.981 162.457 263.985 160.332 263 158z"/>
<path style="fill:#cccc66; stroke:none;" d="M194 159L194 162C194.696 160.446 194.696 160.554 194 159z"/>
<path style="fill:#f7d054; stroke:none;" d="M242 166C247.449 168.125 252.376 163.396 255 159C250.009 160.388 246.994 164.711 242 166z"/>
<path style="fill:#e0d174; stroke:none;" d="M187 160L187 163C188.015 161.861 188.309 161.388 189 160L187 160z"/>
<path style="fill:#ffffff; stroke:none;" d="M211 160L212 161L211 160z"/>
<path style="fill:#f2cd37; stroke:none;" d="M225 164C226.861 163.16 228.334 162.202 230 161C227.235 160.38 226.412 161.665 225 164z"/>
<path style="fill:#aaaa55; stroke:none;" d="M254 160L255 161L254 160z"/>
<path style="fill:#dfb567; stroke:none;" d="M274 160L273 164C274.608 162.55 275.064 161.949 276 160L274 160z"/>
<path style="fill:#edd062; stroke:none;" d="M229 161L228 165C229.753 163.67 230.67 162.753 232 161L229 161z"/>
<path style="fill:#ff7f7f; stroke:none;" d="M253 161L254 162L253 161z"/>
<path style="fill:#f6b83f; stroke:none;" d="M270 164C271.457 162.897 271.897 162.457 273 161C270.876 161.899 270.899 161.876 270 164z"/>
<path style="fill:#e2d96e; stroke:none;" d="M195 162C194.094 168.549 198.559 169.277 204 168C201.387 166.902 198.836 167.007 196 167C195.912 165.036 195.779 163.769 195 162z"/>
<path style="fill:#f4e05b; stroke:none;" d="M227 162C224.695 164.948 222.709 165.747 219 166C223.701 167.969 226.88 166.457 229 162L227 162z"/>
<path style="fill:#ecc770; stroke:none;" d="M272 162L268 167C270.885 166.132 272.673 165.179 272 162z"/>
<path style="fill:#ffffff; stroke:none;" d="M172 163L173 164L172 163z"/>
<path style="fill:#ffff00; stroke:none;" d="M216 163L217 164L216 163z"/>
<path style="fill:#aaaa55; stroke:none;" d="M216 164L217 165L216 164M194.333 165.667C194.278 165.722 194.222 166.778 194.667 166.333C194.722 166.278 194.778 165.222 194.333 165.667z"/>
<path style="fill:#ffff00; stroke:none;" d="M216 165L217 166L216 165z"/>
<path style="fill:#bfbf7f; stroke:none;" d="M227.333 165.667C227.278 165.722 227.222 166.778 227.667 166.333C227.722 166.278 227.778 165.222 227.333 165.667z"/>
<path style="fill:#f0e177; stroke:none;" d="M217 166C219.56 167.942 221.808 167.965 225 168C222.465 166.861 219.744 166.518 217 166z"/>
<path style="fill:#f4e357; stroke:none;" d="M263 166C264.769 166.779 266.036 166.912 268 167C266.231 166.221 264.964 166.088 263 166z"/>
<path style="fill:#ffffff; stroke:none;" d="M182 167L183 168L182 167z"/>
<path style="fill:#ff7f7f; stroke:none;" d="M217 167L218 168L217 167z"/>
<path style="fill:#c6c68e; stroke:none;" d="M225.667 167.333C225.222 167.778 226.278 167.722 226.333 167.667C226.778 167.222 225.722 167.278 225.667 167.333z"/>
<path style="fill:#ccbf80; stroke:none;" d="M261 167C263.974 169.251 266.487 169.027 270 168C267.142 167.229 263.986 167.318 261 167z"/>
<path style="fill:#e1d272; stroke:none;" d="M264 167C265.506 167.683 266.315 167.826 268 168C266.494 167.317 265.685 167.174 264 167z"/>
<path style="fill:#555555; stroke:none;" d="M98 227C102.11 228.215 105.89 228.215 110 227C107.989 208.997 111 190.097 111 172L109 172C109 190.437 107 208.61 107 227L101 227C101 208.447 105.074 189.571 103 171C105.709 170.352 108.216 170.058 111 170L111 168C108.374 168.002 103.888 167.254 102.028 169.603C99.2199 173.15 101.002 182.678 101 187C100.995 199.894 101.028 214.428 98 227z"/>
<path style="fill:#505050; stroke:none;" d="M121 168C120.89 170.442 120.572 172.623 120 175C123.657 176.081 127.199 176 131 176L131 168L121 168z"/>
<path style="fill:#d1c580; stroke:none;" d="M174 168C176.332 168.985 178.457 168.981 181 169C178.668 168.015 176.543 168.019 174 168z"/>
<path style="fill:#ddcf8a; stroke:none;" d="M218 168C220.052 168.874 221.747 168.953 224 169C221.948 168.126 220.253 168.047 218 168z"/>
<path style="fill:#ffffff; stroke:none;" d="M224 168L225 169L224 168z"/>
<path style="fill:#3e3e3e; stroke:none;" d="M103 171C103.543 178.644 104.44 186.318 103.91 194C103.174 204.692 100.865 215.394 104 226C101.362 222.518 102 218.239 102 214C100.339 217.959 101 222.737 101 227L107 227C107 219.635 107.971 212.306 107.971 205C107.971 193.217 106.656 181.333 111 170C108.15 170.021 105.729 170.19 103 171z"/>
<path style="fill:#3b3b3b; stroke:none;" d="M123 170L123 174L129 174L129 170L123 170z"/>
<path style="fill:#4e4e4e; stroke:none;" d="M141 175C141.648 177.709 141.942 180.216 142 183L136 183C135.89 185.442 135.572 187.623 135 190C136.635 190.545 136.455 190.365 137 192L141 191C141 200.677 138.205 212.626 140.394 221.995C141.376 226.199 146.449 231.537 150 227C147.336 226.206 144.545 225.355 143.028 222.786C141.404 220.037 141.995 216.055 142 213C142.012 204.986 143 197.051 143 189L138 189L138 185L143 185C143.933 180.726 144.992 178.015 149 176L149 186L161 186C157.688 189.127 151.558 187.751 149.179 191.318C146.735 194.984 148.821 200.012 148.821 204C148.821 209.914 144.635 222.911 154 223.762C155.981 223.943 158.068 223.357 160 223C157.84 225.471 156.049 226.787 153 228C156.099 229.285 162.121 229.06 161.534 224.129C160.956 219.272 152.802 222.485 150.742 217.863C147.448 210.472 150.999 198.873 151 191C158.38 191 162.899 191.559 163 183C155.553 182.999 150.471 182.788 152 174C148.306 173.716 144.614 174.206 141 175z"/>
<path style="fill:#3e3e3e; stroke:none;" d="M383 175L382 183C383.3 182.35 383 182.853 383 181L384 185C380.59 185.263 379.099 185.679 378 189L384 189C383.928 197.671 382.996 206.28 383 215C383.002 218.39 382.378 222.833 385.318 225.258C388.907 228.218 395.665 227 400 227L400 223C393.979 223.69 391.219 221.645 386 219C387.623 212.183 386.997 204.962 387.845 198C388.19 195.169 388.129 191.085 390.993 189.465C393.52 188.035 398.18 188.998 401 189C398.306 185.264 394.279 186 390 186C390.559 181.6 391.493 177.443 391 173L383 175z"/>
<path style="fill:#555555; stroke:none;" d="M120 176L121 177L120 176z"/>
<path style="fill:#3c3c3c; stroke:none;" d="M143 185L138 185L138 189L143 189C143 197.387 142 205.633 142 214C142 216.941 141.348 221.004 143.028 223.606C144.583 226.014 147.415 226.53 150 227C149.455 228.635 149.635 228.455 148 229C151.163 230.327 154.586 230 158 230C156.231 229.221 154.964 229.088 153 229C156.042 227.268 158.194 226.03 160 223C156.622 223.415 153.046 224.363 150.318 221.678C145.739 217.171 147.921 204.93 148.004 199C148.036 196.715 147.972 194.187 149.179 192.148C151.911 187.535 157.927 190.261 161 186L149 186L149 176C144.423 177.385 143.619 180.527 143 185z"/>
<path style="fill:#2d2d2d; stroke:none;" d="M103 178L103 198C105.087 193.027 105.087 182.973 103 178z"/>
<path style="fill:#4c4c4c; stroke:none;" d="M108 179L108 200C110.153 194.869 110.153 184.131 108 179z"/>
<path style="fill:#7f7f7f; stroke:none;" d="M151 180L152 181L151 180z"/>
<path style="fill:#404040; stroke:none;" d="M376 181L377 182L376 181z"/>
<path style="fill:#4e4e4e; stroke:none;" d="M383 181C379.59 183.755 376.763 184.216 376 189C375.278 186.582 375.052 184.528 375 182C368.883 182.001 362.514 181.368 360 188C364.267 185.852 368.262 184.612 373 184L373 189C369.859 189.002 366.121 188.542 363.29 190.179C352.571 196.378 356 216.816 356 227L350 227C350.17 218.742 349.528 210.201 350.09 202C350.511 195.838 352.475 190.957 350 185C353.269 184.249 355.731 184.249 359 185C356.569 182.218 352.509 183 349 183L348 228L358 228C358 217.816 354.699 197.202 366.04 191.883C370.11 189.974 376.524 190.862 381 191L381 206C383.934 201.11 383.985 194.591 384 189L378 189C379.556 186.15 380.793 185.497 384 185C383.826 183.315 383.683 182.506 383 181z"/>
<path style="fill:#535353; stroke:none;" d="M91 221C85.4474 219.473 80.57 222.234 75 221.775C65.0983 220.96 62.5194 212.001 60 204C56.9446 211.35 62.6592 221.042 70 223.347C75.7945 225.167 82.3662 223.583 88 222C85.8728 228.734 71.5776 228.577 65.8302 226.177C48.9403 219.122 51.1851 193.667 66 186.059C70.7696 183.609 75.7973 184 81 184C73.4915 178.312 60.6406 184.114 55.8503 191.015C44.961 206.704 54.7144 229.115 74 229.959C82.0644 230.312 88.7292 229.3 91 221z"/>
<path style="fill:#555557; stroke:none;" d="M168 195C173.397 190.346 177.647 184.755 185.17 183.51C197.173 181.523 204.558 192.732 205 203L183 203C180.228 203.001 175.943 202.323 173.604 204.179C171.405 205.924 172.368 208.794 173 211C173.779 209.231 173.912 207.964 174 206C179.304 206 184.715 206.309 190 205.831C194.156 205.456 200.996 207.186 204.682 205.396C210.267 202.684 205.878 191.462 203.211 188.185C194.359 177.309 170.921 180.526 168 195z"/>
<path style="fill:#4f4f4f; stroke:none;" d="M210 219C207.784 226.727 212.166 228.344 219 229.41C226.473 230.575 236.032 229.173 238.964 220.999C241.964 212.635 234.321 206.61 228.834 201.715C226.778 199.88 222.686 197.23 223.037 194.019C223.596 188.917 232.475 190.042 236 189C231.284 184.869 219.556 187.166 220.286 194.986C221.216 204.934 237.812 206.89 236.742 217.999C235.641 229.429 216.173 229.978 211 222C213.635 222.74 216.267 223.538 219 223.826C225.339 224.495 235.734 220.622 230.427 212.518C226.119 205.939 204.801 194.337 219.994 186.179C221.618 185.307 223.216 185.199 225 185C224.35 183.7 224.853 184 223 184C226.35 183.01 229.514 183.002 233 183C230.582 183.722 228.528 183.948 226 184C229.304 185.899 233.266 185.445 237 185L237 183C233.653 182.203 230.446 181.93 227 182.015C224.618 182.073 222.241 182.266 220.001 183.148C218.223 183.848 216.575 184.858 215.228 186.225C203.594 198.028 224.125 206.34 228.03 215.01C231.047 221.707 220.742 221.612 217.002 220.877C214.633 220.411 212.331 219.617 210 219z"/>
<path style="fill:#515151; stroke:none;" d="M247 184C247 197.403 246.624 210.655 246.039 224C245.701 231.737 246.422 239.339 245 247C246.801 247.562 248.122 247.824 250 248C245.682 241.928 248.161 233.037 248.83 226C250.071 212.966 250 199.093 250 186L264 185C263.35 183.7 263.853 184 262 184C271.743 181.127 279.106 187.567 287 192C287.215 197.809 289.507 202.929 288.826 209C287.943 216.861 282.141 225.251 274 226.736C268.963 227.655 264.763 226.119 260 225L261 223L254 220L253 240C257.717 236.942 256 229.074 256 224C258.815 226.27 261.5 227.913 265 228.956C288.906 236.083 300.782 198.608 282.96 185.652C272.18 177.816 258.655 184.446 247 184z"/>
<path style="fill:#505050; stroke:none;" d="M329 182C318.931 183.125 310.796 180.601 302.529 188.298C289.466 200.461 295.394 224.072 312 228.957C332.96 235.122 346.858 213.715 340.775 195C338.667 188.513 333.408 186.473 329 182z"/>
<path style="fill:#7f7f7f; stroke:none;" d="M351 182L352 183L351 182z"/>
<path style="fill:#555555; stroke:none;" d="M390 182L390 186L401 186L401 189C397.995 188.992 392.236 187.636 389.858 189.832C386.859 192.601 388 199.364 388 203C388 209.175 385.547 221.988 394 223.593C395.958 223.964 398.085 223.349 400 223L400 227C395.965 227 390.725 227.829 387.059 225.821C380.416 222.183 383 209.367 383 203C379.533 208.677 377.866 220.264 382.514 225.775C385.928 229.823 395.897 232.187 400.157 228.144C401.779 226.604 402.322 224.039 403 222C399.836 221.082 395.119 222 392.434 220.052C389.973 218.269 389.944 214.733 390.093 212C390.477 204.96 391 198.085 391 191C393.891 191 398.019 191.707 400.682 190.397C403.048 189.233 403.814 184.902 401.397 183.349C398.807 181.684 393.157 182.75 390 182z"/>
<path style="fill:#474747; stroke:none;" d="M68 184C72.6182 185.938 78.9568 185.363 84 186L82 183C77.3449 184.108 72.7611 184 68 184z"/>
<path style="fill:#555555; stroke:none;" d="M82 183C83.961 186.093 87.235 187.928 89.2724 191.015C91.6184 194.571 91.9144 198.875 92 203L67 204L67 206C72.3858 206 77.7893 205.761 83.1698 205.92C86.0598 206.005 90.0053 206.617 92.679 205.258C95.634 203.757 94.8528 199.553 94.2693 196.91C92.7634 190.091 88.6319 185.124 82 183z"/>
<path style="fill:#575757; stroke:none;" d="M120 183L121 187C122.967 186.222 125.997 184.639 127.535 187.051C129.101 189.505 128.083 195.205 127.961 198C127.536 207.694 127 217.254 127 227L121 227L122 197C119.014 201.371 120.191 206.919 119.961 212C119.715 217.422 118.045 222.524 118 228C121.786 228.003 125.306 228.121 129 229C130.373 223.232 129.733 217.578 129.884 211.715C130.132 202.148 130.927 192.554 131 183L120 183z"/>
<path style="fill:#606060; stroke:none;" d="M183 185C185.377 184.428 187.558 184.11 190 184C187.266 182.86 185.003 182.707 183 185z"/>
<path style="fill:#5f5f5f; stroke:none;" d="M223 183C226.163 184.327 229.586 184 233 184C229.837 182.673 226.414 183 223 183z"/>
<path style="fill:#5f5f60; stroke:none;" d="M237 183C237.353 185.981 237.506 187.289 235 189C236.506 189.683 237.315 189.826 239 190C238.917 187.092 238.759 185.308 237 183z"/>
<path style="fill:#494950; stroke:none;" d="M238 183C238.572 185.377 238.89 187.558 239 190L235 190C236.458 191.081 237.248 191.436 239 192C239.967 188.722 240.758 185.411 238 183z"/>
<path style="fill:#636363; stroke:none;" d="M262 183C265.163 184.327 268.586 184 272 184C268.837 182.673 265.414 183 262 183z"/>
<path style="fill:#333333; stroke:none;" d="M376.667 183.333C376.222 183.778 377.278 183.722 377.333 183.667C377.778 183.222 376.722 183.278 376.667 183.333z"/>
<path style="fill:#7f7f7f; stroke:none;" d="M134 184L135 185L134 184z"/>
<path style="fill:#404040; stroke:none;" d="M169 195C167.977 193.466 168.195 193.598 167 193C166.014 194.479 166 194.203 166 196C168.674 196 167 204.003 167 207C167 218.537 172.525 227 185 227C190.274 227 200.246 228.979 201 222C190.751 224.114 176.973 226.28 173.647 212.985C172.982 210.327 171.623 206.964 173.622 204.573C175.874 201.878 179.831 202.021 183 202.001C189.772 201.957 196.288 202.152 203 203C203.746 199.868 204.495 196.465 203.501 193.286C198.59 177.583 174.776 183.945 169 195z"/>
<path style="fill:#3b3b3b; stroke:none;" d="M211 222C214.603 230.16 234.404 229.411 236.605 219.981C239.559 207.322 223.585 205.786 220.786 195.96C218.161 186.745 231.9 186.455 237 189L237 185C230.072 185.475 219.179 182.214 215.333 190.044C210.054 200.79 226.252 206.252 230.412 213.326C234.392 220.093 225.547 224.321 220 223.822C216.966 223.549 213.977 222.614 211 222z"/>
<path style="fill:#3f3f3f; stroke:none;" d="M250 186C250 206.048 247.858 226.008 247 246L253 246L254 220C256.382 221.071 258.475 222.317 261 223L260 225C270.89 228.89 284.588 227.238 287.918 214C289.643 207.145 287.822 198.816 287 192C284.738 190.11 282.667 187.881 279.985 186.571C270.59 181.982 259.816 185.225 250 186z"/>
<path style="fill:#555555; stroke:none;" d="M304 184L305 185L304 184z"/>
<path style="fill:#3e3e3e; stroke:none;" d="M304 224C306.927 224.488 308.396 226.132 311 227C313.956 227.985 319.866 227.261 323 227C336.525 225.873 343.267 210.802 339 198C338.296 195.887 338.37 192.761 337 191C330.712 182.916 319.827 183.793 311 186C305.572 187.357 300.867 191.398 299 197C297.297 202.108 297.297 210.892 299 216C299.985 218.954 303.165 221.165 305 223L304 224z"/>
<path style="fill:#5d5d5d; stroke:none;" d="M350 187C354.113 185.388 356.11 185.575 359 189C360.202 183.282 352.517 183.119 350 187z"/>
<path style="fill:#404040; stroke:none;" d="M357 190L357 185C354.795 185.094 353.106 185.356 351 186C351.716 191.016 350.82 195.952 351.039 201C351.229 205.367 352.298 209.597 351.896 214C351.489 218.451 350.041 222.458 350 227L354 227C352.752 226.315 352.452 226.251 351 226L355 225C355 214.743 352.974 194.734 365.09 189.742C367.525 188.739 370.425 189.007 373 189L373 184C366.597 184.51 362.324 186.541 357 190z"/>
<path style="fill:#3f3f3f; stroke:none;" d="M58 222L69 225C66.8472 221.37 63.4499 218.731 61.4174 214.999C52.4387 198.515 76.6307 202 86 202C79.0721 199.093 68.497 201 61 201C61.5468 194.946 64.7859 189.368 71.0008 187.514C79.1777 185.074 87.4406 191.574 86 200L92 201C91.8053 196.535 91.2582 191.54 87.7724 188.314C81.0465 182.09 65.195 183.956 59.2245 190.188C50.8002 198.981 54.011 212.246 58 222z"/>
<path style="fill:#4c4c4c; stroke:none;" d="M120 185L120 199C121.819 197.636 121.031 197.508 123 198L123 186C121.263 186.062 121.36 186.02 120 185z"/>
<path style="fill:#3e3e3e; stroke:none;" d="M123 185C123 199.045 121 212.944 121 227L127 227C127 216.62 127.904 206.323 128 196C128.05 190.607 129.705 185.536 123 185z"/>
<path style="fill:#404040; stroke:none;" d="M134 185L135 186L134 185z"/>
<path style="fill:#474749; stroke:none;" d="M237 185L237 189C237.71 187.24 237.71 186.76 237 185z"/>
<path style="fill:#7f7f7f; stroke:none;" d="M403 185L404 186L403 185z"/>
<path style="fill:#727272; stroke:none;" d="M357 186C357.307 188.123 357.382 188.686 359 190C358.489 188.048 358.267 187.543 357 186z"/>
<path style="fill:#1c1c1c; stroke:none;" d="M400.333 186.667C400.278 186.722 400.222 187.778 400.667 187.333C400.722 187.278 400.778 186.222 400.333 186.667z"/>
<path style="fill:#555555; stroke:none;" d="M61 201C70.0961 199.311 78.8868 200.281 88 201C85.3659 196.785 87.27 191.923 82 188.333C72.3474 181.758 61 190.998 61 201z"/>
<path style="fill:#4a4a4c; stroke:none;" d="M175 189C175.768 190.314 175.686 190.232 177 191L174 195L177 196C183.314 188.161 195.361 186.775 197 199L199 199C198.742 194.294 196.155 191.312 195 187C191.697 187.224 188.262 186.683 184.999 187.274C181.384 187.928 178.765 189.293 175 189z"/>
<path style="fill:#4d4d4d; stroke:none;" d="M318.039 187.684C309.006 189.689 303.65 196.859 303.27 206.015C302.831 216.585 311.043 225.836 322 223.657C340.046 220.068 338.281 183.193 318.039 187.684z"/>
<path style="fill:#555555; stroke:none;" d="M168 188L169 189L168 188z"/>
<path style="fill:#4d4d4d; stroke:none;" d="M263.001 188.429C255.247 189.596 255.105 194.074 254.285 201C253.082 211.173 257.075 225.411 270 223.772C283.569 222.052 288.197 202.291 279.888 192.681C275.787 187.937 268.795 187.557 263.001 188.429z"/>
<path style="fill:#000000; stroke:none;" d="M63 199L85 199C82.6813 186.208 65.5554 186.441 63 199M176 199L197 199C196.088 185.451 178.804 187.239 176 199M262.019 190.533C255.854 192.099 257 197.866 257 203C257 212.112 259.556 224.697 271.995 221.053C282.202 218.064 284.123 200.499 277.387 193.394C273.703 189.509 266.934 189.285 262.019 190.533z"/>
<path style="fill:#7f7f7f; stroke:none;" d="M287 190L288 191L287 190z"/>
<path style="fill:#000000; stroke:none;" d="M316 190.653C299.415 195.833 304.186 227.301 322.999 220.851C338.055 215.689 334.228 184.959 316 190.653z"/>
<path style="fill:#2e2e2e; stroke:none;" d="M107 192L107 200C108.161 197.23 108.161 194.77 107 192z"/>
<path style="fill:#4f4f4f; stroke:none;" d="M167 195C162.534 206.668 163.192 222.79 177 227.867C184.519 230.631 194.268 228.977 202 228L204 220C196.086 220.163 186.918 224.348 180.044 218.697C177.463 216.575 175.892 213.679 174 211C171.596 226.139 191.815 224.581 201 222C198.412 226.808 194.089 226.977 189 226.999C180.67 227.036 172.319 224.938 168.633 216.572C165.495 209.448 169.111 201.864 167 195z"/>
<path style="fill:#555555; stroke:none;" d="M174 195C173.408 197.688 173.325 199.341 174 202C181.681 200.108 189.138 200 197 200C191.041 197.5 182.436 199 176 199L176 195L174 195z"/>
<path style="fill:#7f7f7f; stroke:none;" d="M81 196L82 197L81 196z"/>
<path style="fill:#2d2d2f; stroke:none;" d="M204 197L203 203C205.093 201.176 205.039 199.529 204 197z"/>
<path style="fill:#7f7f7f; stroke:none;" d="M223 197L224 198L223 197M290 197L291 198L290 197M131 198L132 199L131 198z"/>
<path style="fill:#5e5e5e; stroke:none;" d="M350 198L350 212C351.667 208.028 351.667 201.972 350 198z"/>
<path style="fill:#636365; stroke:none;" d="M181 200C186.469 202.295 194.099 201 200 201C195.479 198.081 186.447 200 181 200z"/>
<path style="fill:#313131; stroke:none;" d="M288 199L288 211C289.512 207.396 289.512 202.604 288 199z"/>
<path style="fill:#67676a; stroke:none;" d="M63 200C68.959 202.5 77.5639 201 84 201C78.041 198.5 69.4361 200 63 200z"/>
<path style="fill:#636365; stroke:none;" d="M148 200L148 208C149.161 205.23 149.161 202.77 148 200z"/>
<path style="fill:#313131; stroke:none;" d="M387 200C387 206.475 385.932 213.691 387 220C389.087 215.027 389.087 204.973 387 200z"/>
<path style="fill:#2f2f31; stroke:none;" d="M62 202C70.1277 205.411 83.1864 203 92 203L92 201L62 202M175 202C181.928 204.907 192.503 203 200 203C193.072 200.093 182.497 202 175 202z"/>
<path style="fill:#5d5d5f; stroke:none;" d="M60 203C60.1759 204.878 60.4382 206.199 61 208C67.2573 204.39 72.9197 204 80 204C74.2853 201.602 66.1692 203 60 203z"/>
<path style="fill:#404040; stroke:none;" d="M193 205C194.769 205.779 196.036 205.912 198 206C196.231 205.221 194.964 205.088 193 205z"/>
<path style="fill:#2e2e2e; stroke:none;" d="M351 205L351 218C352.591 214.209 352.591 208.791 351 205z"/>
<path style="fill:#2f2f2f; stroke:none;" d="M355 205C354.272 211.518 355 218.415 355 225L351 225C352.693 226.062 354.04 226.52 356 227C356 220.298 357.603 211.202 355 205z"/>
<path style="fill:#555555; stroke:none;" d="M138 208L139 209L138 208z"/>
<path style="fill:#2f2f2f; stroke:none;" d="M102 212C102 216.257 100.6 223.029 104 226C102.909 221.419 103.796 216.279 102 212z"/>
<path style="fill:#333333; stroke:none;" d="M289.333 215.667C289.278 215.722 289.222 216.778 289.667 216.333C289.722 216.278 289.778 215.222 289.333 215.667z"/>
<path style="fill:#555555; stroke:none;" d="M164 216L165 217L164 216z"/>
<path style="fill:#7f7f7f; stroke:none;" d="M258 216L259 217L258 216M261 216L262 217L261 216z"/>
<path style="fill:#555555; stroke:none;" d="M275 216L276 217L275 216z"/>
<path style="fill:#404040; stroke:none;" d="M227 217L228 218L227 217z"/>
<path style="fill:#7f7f7f; stroke:none;" d="M288 218L289 219L288 218M327 218L328 219L327 218M54 219L55 220L54 219z"/>
<path style="fill:#373737; stroke:none;" d="M60 222C64.893 228.036 70.9309 226.961 78.0039 226.997C82.7514 227.021 87.0585 227.422 88 222C80.9703 223.45 75.1469 224.327 68 223C68 226.758 62.5064 222.286 60 222z"/>
<path style="fill:#7f7f7f; stroke:none;" d="M303 224L304 225L303 224M356 228L357 229L356 228z"/>
<path style="fill:#3b3b3b; stroke:none;" d="M182 229C185.697 230.552 190.017 230 194 230C190.303 228.448 185.983 229 182 229z"/>
<path style="fill:#7f7f7f; stroke:none;" d="M219 229L220 230L219 229M383 229L384 230L383 229z"/>
<path style="fill:#606060; stroke:none;" d="M253 240L253 246L248 246C253.574 249.733 254.816 244.722 256 240L253 240z"/>
<path style="fill:#404040; stroke:none;" d="M255.333 245.667C255.278 245.722 255.222 246.778 255.667 246.333C255.722 246.278 255.778 245.222 255.333 245.667z"/>
</svg>
